<svg width="32" height="23" viewBox="0 0 32 23" fill="none" xmlns="http://www.w3.org/2000/svg">
<path d="M31.2002 22.4H0.799815C0.35812 22.4 0 22.0419 0 21.6002V0.799814C0 0.35812 0.358127 0 0.799815 0H31.2002C31.4123 0 31.6156 0.0841094 31.7659 0.234376C31.9159 0.384376 32 0.587676 32 0.799822V21.6002C32 21.8124 31.9159 22.0159 31.7659 22.1659C31.6156 22.3159 31.4123 22.4 31.2002 22.4V22.4ZM1.60004 20.8001H30.4V1.60018H1.60004V20.8001Z" fill="black"/>
<path d="M15.9999 17.784C14.2525 17.7904 12.574 17.1018 11.3344 15.8699C10.0951 14.638 9.39618 12.9637 9.39193 11.2162C9.38767 9.46873 10.0785 7.79113 11.3119 6.55308C12.5454 5.31503 14.2203 4.61834 15.9678 4.61622C17.7155 4.61407 19.3921 5.30673 20.6288 6.54183C21.8652 7.77666 22.56 9.45261 22.56 11.2002C22.5621 12.9428 21.8724 14.6151 20.6424 15.8496C19.4124 17.0842 17.7426 17.78 15.9999 17.7841V17.784ZM15.9999 6.22428C14.6762 6.21785 13.4044 6.7383 12.465 7.67072C11.5254 8.60343 10.9955 9.87117 10.9921 11.1949C10.9884 12.5187 11.5115 13.7894 12.446 14.7269C13.3806 15.6644 14.6497 16.1915 15.9732 16.1923C17.297 16.1929 18.5666 15.6671 19.5019 14.7307C20.4376 13.7943 20.962 12.5241 20.9599 11.2004C20.9599 9.88331 20.4378 8.62009 19.5081 7.68745C18.5783 6.75475 17.317 6.22874 16 6.22442L15.9999 6.22428Z" fill="black"/>
<path d="M26.5601 5.36016H23.6C23.1583 5.36016 22.8002 5.00203 22.8002 4.56034C22.8002 4.11838 23.1583 3.76025 23.6 3.76025H26.5601C27.0018 3.76025 27.3602 4.11838 27.3602 4.56034C27.3602 5.00204 27.0018 5.36016 26.5601 5.36016Z" fill="black"/>
</svg>
