<svg width="24" height="24" viewBox="0 0 24 24" fill="none" xmlns="http://www.w3.org/2000/svg">
<path fill-rule="evenodd" clip-rule="evenodd" d="M15.4286 22.2857H17.1429V11.1429C17.1429 10.6695 17.5267 10.2857 18 10.2857H21.4286C21.9019 10.2857 22.2857 10.6695 22.2857 11.1429V22.2857H23.1429C23.6162 22.2857 24 22.6695 24 23.1429C24 23.6162 23.6162 24 23.1429 24H0.857143C0.620474 24 0.406188 23.9041 0.25102 23.749C0.0958531 23.5938 0 23.3795 0 23.1429V0.857143C0 0.383799 0.383799 0 0.857143 0C1.33049 0 1.71429 0.383799 1.71429 0.857143V22.2857H3.42857V15.4286C3.42857 14.9552 3.81237 14.5714 4.28571 14.5714H7.71429C8.18763 14.5714 8.57143 14.9552 8.57143 15.4286V22.2857H10.2857V6C10.2857 5.52666 10.6695 5.14286 11.1429 5.14286H14.5714C15.0448 5.14286 15.4286 5.52666 15.4286 6V22.2857ZM5.14286 16.2857V22.2857H6.85714V16.2857H5.14286ZM18.8571 12V22.2857H20.5714V12H18.8571ZM12 22.2857H13.7143V6.85714H12V22.2857Z" fill="#79747E"/>
</svg>
