<svg width="26" height="24" viewBox="0 0 26 24" fill="none" xmlns="http://www.w3.org/2000/svg">
<path d="M3.91466 16.7994L9.91821e-05 20.6395L3.53583 23.9994L7.57682 20.2795L11.3652 23.9994L13.8906 10.7998L0.000315541 13.1997L3.91466 16.7994Z" fill="black"/>
<path d="M2.52543 2.39985H3.78836V0H0V3.59997H2.52543V2.39985Z" fill="black"/>
<path d="M11.3654 0H13.891V2.40005H11.3654V0Z" fill="black"/>
<path d="M16.4163 0H18.942V2.40005H16.4163V0Z" fill="black"/>
<path d="M22.7304 3.59997H25.2558V0H21.4674V2.39985H22.7304V3.59997Z" fill="black"/>
<path d="M6.31388 0H8.83952V2.40005H6.31388V0Z" fill="black"/>
<path d="M22.7304 21.6H21.4674V23.9999H25.2558V20.3999H22.7304V21.6Z" fill="black"/>
<path d="M16.4163 21.5996H18.942V23.9997H16.4163V21.5996Z" fill="black"/>
<path d="M22.7304 10.7998H25.2561V13.1999H22.7304V10.7998Z" fill="black"/>
<path d="M22.7304 15.5996H25.2561V17.9997H22.7304V15.5996Z" fill="black"/>
<path d="M22.7304 6H25.2561V8.40005H22.7304V6Z" fill="black"/>
<path d="M0.000202179 5.99951H2.52585V8.39956H0.000202179V5.99951Z" fill="black"/>
</svg>
