<svg width="24" height="24" viewBox="0 0 24 24" fill="none" xmlns="http://www.w3.org/2000/svg">
<circle cx="12" cy="12" r="12" fill="#B8B8B8"/>
<path d="M12.4954 15.848C12.9327 15.848 13.3914 15.8 13.8714 15.704C14.362 15.5973 14.8154 15.4587 15.2314 15.288V16.504C14.6447 16.7387 14.122 16.904 13.6634 17C13.2154 17.0853 12.746 17.128 12.2554 17.128C10.7194 17.128 9.63671 16.7333 9.00738 15.944C8.37804 15.144 8.06338 13.816 8.06338 11.96C8.06338 10.1787 8.42604 8.87733 9.15138 8.056C9.88738 7.224 11.0554 6.808 12.6554 6.808C13.146 6.808 13.5834 6.81867 13.9674 6.84C14.3514 6.86133 14.698 6.89867 15.0074 6.952V8.152C14.634 8.10933 14.2554 8.08267 13.8714 8.072C13.498 8.05067 13.0927 8.04 12.6554 8.04C11.4607 8.04 10.6287 8.33867 10.1594 8.936C9.69004 9.52267 9.45538 10.5307 9.45538 11.96C9.45538 13.4107 9.66871 14.424 10.0954 15C10.522 15.5653 11.322 15.848 12.4954 15.848Z" fill="white"/>
</svg>
