<svg width="29" height="26" viewBox="0 0 29 26" fill="none" xmlns="http://www.w3.org/2000/svg">
<path d="M6.05244 1.00051C3.26947 1.00051 1 3.27021 1 6.05317C1 8.08913 2.21853 9.8432 3.96048 10.6419L5.66757 19.9474H3.52605C3.50644 19.9465 3.48662 19.9465 3.46701 19.9474C3.14145 19.978 2.89319 20.252 2.89454 20.5789V24.3685C2.89454 24.7172 3.17737 25 3.52605 25H20.5784C20.9271 25 21.2099 24.7172 21.2099 24.3685V20.5789C21.2099 20.2302 20.9271 19.9474 20.5784 19.9474H14.746L10.5026 9.18084L22.3445 7.96716L25.009 9.4474C25.1993 9.55269 25.4306 9.55269 25.6209 9.4474L28.4629 7.86848C28.7682 7.69953 28.8785 7.31515 28.7096 7.00983C28.5406 6.70474 28.1562 6.59417 27.8509 6.76312L25.3149 8.17439L23.1045 6.94086V4.84868L25.3149 3.61514L27.8509 5.02642C28.1562 5.19537 28.5406 5.08479 28.7096 4.77971C28.8785 4.47441 28.7682 4.09006 28.4629 3.92106L25.6209 2.34214C25.5099 2.27958 25.3826 2.25204 25.2557 2.26328C25.1689 2.27209 25.085 2.29897 25.009 2.34214L22.3446 3.82238L9.76282 2.62826C8.83875 1.62847 7.51579 1 6.05229 1L6.05244 1.00051ZM6.05244 2.26376C8.15274 2.26376 9.84179 3.95281 9.84179 6.05311C9.84179 8.15342 8.15274 9.84247 6.05244 9.84247C3.95213 9.84247 2.26308 8.15342 2.26308 6.05311C2.26308 3.95281 3.95213 2.26376 6.05244 2.26376ZM10.661 3.98078L21.8415 5.04644V6.74389L10.7597 7.87874C10.9811 7.31151 11.1051 6.69697 11.1051 6.05311C11.1051 5.31542 10.9472 4.61364 10.661 3.98078ZM9.39778 9.82279L13.3847 19.9476H6.95062L5.31243 11.0465C5.55495 11.0824 5.80033 11.1055 6.05255 11.1055C7.33717 11.1055 8.50484 10.6171 9.39783 9.82261L9.39778 9.82279ZM4.1579 21.2108H19.9471V23.7369H4.1579V21.2108Z" fill="#79747E" stroke="black" stroke-width="0.3"/>
</svg>
