<svg width="27" height="26" viewBox="0 0 27 26" fill="none" xmlns="http://www.w3.org/2000/svg">
<path d="M7.43758 1.16997L7.43775 1.17026L12.8479 10.6568C12.8479 10.6569 12.848 10.657 12.8481 10.6571C12.9632 10.8569 12.9615 11.1033 12.8434 11.3015L12.8433 11.3015C12.7255 11.4989 12.5103 11.6176 12.2804 11.6116L1.48908 11.6116C1.48899 11.6116 1.4889 11.6116 1.48881 11.6116H1.48852V11.4616C1.31433 11.4623 1.15316 11.37 1.06562 11.2192L7.43758 1.16997ZM7.43758 1.16997C7.32421 0.972207 7.11365 0.85 6.88542 0.85C6.65719 0.85 6.44663 0.972214 6.33326 1.16997L6.33302 1.17039L0.935311 10.6568L7.43758 1.16997ZM11.1875 10.3388H2.58039L6.87943 2.76429L11.1875 10.3388Z" fill="#023E8A" stroke="#023E8A" stroke-width="0.3"/>
<path d="M24.4173 10.9979L24.4174 10.9978C24.8104 10.6046 25.0313 10.0715 25.0313 9.5156V3.67712C25.0313 3.12125 24.8104 2.58808 24.4174 2.19487L24.4173 2.19481C24.0241 1.80181 23.4909 1.58096 22.9351 1.58096H17.0966C16.5407 1.58096 16.0076 1.8018 15.6144 2.19481L15.6143 2.19487C15.2213 2.5881 15.0005 3.12126 15.0005 3.67712V9.5156C15.0005 10.0715 15.2213 10.6046 15.6143 10.9978L15.6144 10.9979C16.0076 11.3909 16.5408 11.6118 17.0966 11.6118H22.9351C23.491 11.6118 24.0241 11.3909 24.4173 10.9979ZM16.2735 3.67712C16.2735 3.45884 16.3603 3.24938 16.5146 3.09508C16.6689 2.94077 16.8783 2.85404 17.0966 2.85404H22.9351C23.1534 2.85404 23.3628 2.94077 23.5171 3.09508C23.6714 3.24938 23.7582 3.45884 23.7582 3.67712V9.5156C23.7582 9.73387 23.6714 9.94333 23.5171 10.0976C23.3628 10.2519 23.1534 10.3387 22.9351 10.3387H17.0966C16.8783 10.3387 16.6689 10.2519 16.5146 10.0976C16.3603 9.94333 16.2735 9.73387 16.2735 9.5156V3.67712Z" fill="#023E8A" stroke="#023E8A" stroke-width="0.3"/>
<path d="M25.3308 17.8245L25.3304 17.8241L21.4381 13.9318C21.061 13.5546 20.5495 13.3427 20.016 13.3427C19.4825 13.3427 18.971 13.5546 18.5939 13.9318C18.5939 13.9318 18.5939 13.9318 18.5939 13.9318L14.7016 17.8241L14.7013 17.8244C14.3254 18.2022 14.1144 18.7133 14.1144 19.2462C14.1144 19.7792 14.3254 20.2903 14.7013 20.6681L14.7016 20.6683L18.5939 24.5607C18.9711 24.9378 19.4825 25.1498 20.016 25.1498C20.5495 25.1498 21.061 24.9378 21.4381 24.5607L25.3304 20.6683L25.3308 20.6679C25.706 20.2899 25.9167 19.7789 25.9167 19.2462C25.9167 18.7136 25.706 18.2025 25.3308 17.8245ZM24.4401 19.7599L24.4298 19.7703L20.5374 23.6626L20.5288 23.6712C20.3911 23.8034 20.2074 23.8774 20.016 23.8774C19.8204 23.8774 19.6329 23.8001 19.4942 23.6625C19.4941 23.6624 19.4941 23.6623 19.494 23.6623L15.602 19.7703L15.6018 19.7701C15.4632 19.632 15.3851 19.4443 15.3851 19.2486C15.3851 19.0532 15.4632 18.8655 15.6018 18.7274L15.602 18.7272L19.4933 14.8359C19.634 14.701 19.8211 14.6258 20.016 14.6258C20.2109 14.6258 20.398 14.701 20.5387 14.8359L24.43 18.7272C24.5682 18.8654 24.6458 19.0531 24.6458 19.2486C24.6458 19.4394 24.572 19.6225 24.4401 19.7599Z" fill="#023E8A" stroke="#023E8A" stroke-width="0.3"/>
<path d="M2.98883 15.356L2.98883 15.356C1.95698 16.3879 1.37734 17.7872 1.37734 19.2465C1.37734 20.7057 1.95704 22.1051 2.98882 23.1369L3.09489 23.0309L2.98883 23.1369C4.02067 24.1688 5.42003 24.7484 6.87928 24.7484C8.33855 24.7484 9.7379 24.1687 10.7697 23.1369L10.6637 23.0309L10.7697 23.1369C11.8016 22.1051 12.3812 20.7057 12.3812 19.2465C12.3812 17.7872 11.8015 16.3879 10.7697 15.356L10.6637 15.4621L10.7697 15.356C9.7379 14.3242 8.33854 13.7445 6.87928 13.7445C5.42008 13.7445 4.02067 14.3242 2.98883 15.356ZM3.88908 22.2367L3.88905 22.2367C3.09592 21.4438 2.65042 20.3681 2.65042 19.2465C2.65042 18.1248 3.09597 17.0492 3.88905 16.2563L3.88908 16.2562C4.68199 15.4631 5.75765 15.0176 6.87928 15.0176C8.00092 15.0176 9.07657 15.4632 9.86949 16.2562L9.86952 16.2563C10.6626 17.0492 11.1081 18.1248 11.1081 19.2465C11.1081 20.3681 10.6626 21.4438 9.86951 22.2367L9.86949 22.2367C9.07657 23.0298 8.00092 23.4753 6.87928 23.4753C5.75765 23.4753 4.682 23.0298 3.88908 22.2367Z" fill="#023E8A" stroke="#023E8A" stroke-width="0.3"/>
</svg>
