<svg width="24" height="24" viewBox="0 0 24 24" fill="none" xmlns="http://www.w3.org/2000/svg">
<circle cx="12" cy="12" r="12" fill="#B8B8B8"/>
<path d="M15.3754 14.12C15.3754 15.144 15.0981 15.88 14.5434 16.328C13.9888 16.776 13.0981 17 11.8714 17H8.17544V6.968H11.8554C12.9648 6.968 13.7541 7.15467 14.2234 7.528C14.6928 7.90133 14.9274 8.54133 14.9274 9.448C14.9274 10.0987 14.8101 10.6 14.5754 10.952C14.3514 11.304 13.9674 11.544 13.4234 11.672C14.0741 11.7573 14.5594 12.0027 14.8794 12.408C15.2101 12.8133 15.3754 13.384 15.3754 14.12ZM13.6634 9.64C13.6634 9.08533 13.5301 8.70133 13.2634 8.488C12.9968 8.264 12.5328 8.152 11.8714 8.152H9.53544V11.288H11.8714C12.5114 11.288 12.9701 11.16 13.2474 10.904C13.5248 10.648 13.6634 10.2267 13.6634 9.64ZM14.0634 14.04C14.0634 13.4427 13.8981 13.0267 13.5674 12.792C13.2368 12.5573 12.6714 12.44 11.8714 12.44H9.53544V15.784H11.8714C12.6714 15.784 13.2368 15.656 13.5674 15.4C13.8981 15.144 14.0634 14.6907 14.0634 14.04Z" fill="white"/>
</svg>
