<?xml version="1.0" encoding="UTF-8"?>
<svg width="195px" height="195px" viewBox="0 0 195 195" version="1.1" xmlns="http://www.w3.org/2000/svg" xmlns:xlink="http://www.w3.org/1999/xlink">
    <title>Logo-blue-text-and-icon</title>
    <g id="Page-1" stroke="none" stroke-width="1" fill="none" fill-rule="evenodd">
        <g id="Logo-blue-text-and-icon" fill="#023E8A" fill-rule="nonzero">
            <path d="M18.49,78 L18.49,44.44 C18.49,30.0805965 30.1305965,18.44 44.49,18.44 L78.16,18.44 L78.16,0 L44.42,0 C19.8989341,0.0275548816 0.0275548816,19.8989341 0,44.42 L0.05,78 L18.49,78 Z" id="Path"></path>
            <path d="M176,135.67 L176,150 C176,156.895629 173.260722,163.50883 168.384776,168.384776 C163.50883,173.260722 156.895629,176 150,176 L116.43,175.95 L116.43,194.45 L150,194.45 C174.540579,194.433447 194.428969,174.540582 194.44,150 L194.44,135.67 L176,135.67 Z" id="Path"></path>
            <path d="M150,0 L116.45,0 L116.45,18.44 L150,18.44 C156.895629,18.44 163.50883,21.1792778 168.384776,26.0552237 C173.260722,30.9311695 176,37.5443713 176,44.44 L176,88 L58.75,88 L58.75,106.44 L194.44,106.44 L194.44,44.44 C194.423453,19.903323 174.536677,0.0165471633 150,0 Z" id="Path"></path>
            <path d="M78.16,175.94 L44.42,176 C37.5243713,176 30.9111695,173.260722 26.0352237,168.384776 C21.1592778,163.50883 18.42,156.895629 18.42,150 L18.42,116.43 L0,116.43 L0,150 C0.0275548816,174.521066 19.8989341,194.392445 44.42,194.42 L78.16,194.42 L78.16,175.94 Z" id="Path"></path>
        </g>
    </g>
</svg>