<?xml version="1.0" encoding="utf-8"?>
<!-- Generator: Adobe Illustrator 21.1.0, SVG Export Plug-In . SVG Version: 6.00 Build 0)  -->
<svg version="1.1" id="Layer_1" xmlns="http://www.w3.org/2000/svg" xmlns:xlink="http://www.w3.org/1999/xlink" x="0px" y="0px"
	 viewBox="0 0 160 40" style="enable-background:new 0 0 160 40;" xml:space="preserve">
<style type="text/css">
	.st0{enable-background:new    ;}
</style>
<g class="st0">
	<path d="M20.5,32.4v3.3c-0.8,0.4-2.1,0.8-3.7,1.2c-1.6,0.3-3.3,0.5-4.9,0.5c-3.7,0-6.4-1-8-2.9c-1.6-1.9-2.4-5.1-2.4-9.5
		c0-4.3,0.8-7.4,2.5-9.3c1.7-1.9,4.3-2.9,8-2.9c3.4,0,5.8,0.8,7.3,2.3c1.5,1.5,2.2,4.1,2.2,7.6c0,0.6,0,1.2,0,1.8
		c0,0.5-0.1,1.2-0.2,2H5.5c0,2.6,0.6,4.5,1.6,5.6c1,1.1,2.8,1.7,5.4,1.7c1.4,0,2.8-0.1,4.3-0.4C18.3,33.1,19.5,32.8,20.5,32.4z
		 M17.9,22.2c0-2.1-0.5-3.6-1.4-4.5c-0.9-0.9-2.4-1.3-4.5-1.3c-2.4,0-4,0.5-5,1.5c-1,1-1.5,2.8-1.5,5.3h12.3c0-0.1,0-0.2,0-0.5
		C17.9,22.5,17.9,22.3,17.9,22.2z"/>
	<path d="M40.3,33.3v3.3c-0.5,0.2-1.2,0.4-2.1,0.6c-0.9,0.1-1.7,0.2-2.5,0.2c-2.9,0-4.9-0.6-6.2-1.9c-1.2-1.3-1.8-3.5-1.8-6.6V16.6
		h-3.6v-3.4h3.6l0.6-5.8h3.3v5.8H40v3.4h-8.4v12c0,2,0.4,3.3,1.1,4c0.7,0.7,2,1.1,3.8,1.1c0.6,0,1.2,0,2-0.1
		C39.2,33.5,39.8,33.4,40.3,33.3z"/>
	<path d="M48.1,37h-3.9V5.1h3.9v10.1c1.4-0.8,2.9-1.4,4.3-1.8c1.4-0.4,2.8-0.6,4.2-0.6c2.6,0,4.6,0.7,5.9,2c1.3,1.3,2,3.2,2,5.8V37
		h-3.9V21.1c0-1.6-0.4-2.8-1.3-3.6c-0.8-0.8-2.2-1.1-4-1.1c-1.2,0-2.4,0.2-3.7,0.5c-1.3,0.3-2.5,0.8-3.6,1.3V37z"/>
	<path d="M91.5,25.1c0,4.5-0.8,7.6-2.5,9.5c-1.6,1.9-4.5,2.8-8.5,2.8c-4.1,0-7-0.9-8.6-2.7c-1.6-1.8-2.4-5-2.4-9.6
		c0-4.5,0.8-7.7,2.5-9.5c1.6-1.8,4.5-2.8,8.5-2.8c4.1,0,7,0.9,8.6,2.7S91.5,20.5,91.5,25.1z M73.5,25c0,3.5,0.5,5.8,1.4,7
		c0.9,1.1,2.8,1.7,5.7,1.7c2.8,0,4.6-0.6,5.6-1.8c1-1.2,1.4-3.5,1.4-6.9c0-3.5-0.5-5.8-1.4-7s-2.8-1.7-5.6-1.7
		c-2.8,0-4.7,0.6-5.6,1.8C74,19.3,73.5,21.6,73.5,25z"/>
	<path d="M100.7,37h-3.9V13.3h3.4l0.2,2.3h0.1c1.3-1,2.6-1.7,4-2.1s3-0.7,4.7-0.7c2.6,0,4.6,0.7,6,2c1.4,1.3,2,3.2,2,5.8V37h-3.9
		V21.1c0-1.6-0.4-2.8-1.3-3.6c-0.9-0.8-2.3-1.2-4.1-1.2c-1.2,0-2.3,0.2-3.5,0.6c-1.2,0.4-2.4,0.9-3.6,1.6V37z"/>
	<path d="M124.9,37h-4.3l11.9-30.1h4.2L148.4,37h-4.3l-2.7-7.2h-13.8L124.9,37z M134.5,10.6c-0.3,1.1-0.7,2.3-1.1,3.6
		c-0.4,1.2-0.9,2.5-1.3,3.7l-3.1,8.2H140l-3.1-8.2c-0.6-1.8-1.1-3.2-1.5-4.3C135.1,12.6,134.8,11.6,134.5,10.6z"/>
	<path d="M156.4,6.9V37h-4.1V6.9H156.4z"/>
</g>
</svg>
