<svg id="Livello_1" data-name="Livello 1" xmlns="http://www.w3.org/2000/svg" viewBox="0 0 801 194.44"><defs><style>.cls-1{fill:#023e8a;}</style></defs><path class="cls-1" d="M18.49,78l0-33.56a26,26,0,0,1,26-26H78.16V0H44.42A44.47,44.47,0,0,0,0,44.42L.05,78Z"/><path class="cls-1" d="M176,135.67V150a26,26,0,0,1-26,26l-33.57-.05v18.5H150A44.47,44.47,0,0,0,194.44,150V135.67Z"/><path class="cls-1" d="M150,0H116.45V18.44H150a26,26,0,0,1,26,26V88H58.75v18.44H194.44v-62A44.47,44.47,0,0,0,150,0Z"/><path class="cls-1" d="M78.16,175.94,44.42,176a26,26,0,0,1-26-26l0-33.57H0V150a44.47,44.47,0,0,0,44.42,44.42H78.16Z"/><path class="cls-1" d="M324.15,135.06v11.23q-4.23,2.28-12.45,4A81.68,81.68,0,0,1,295,152q-18.88,0-27-9.77T259.87,110q0-21.65,8.46-31.5t27-9.84q17.25,0,24.73,7.73t7.49,25.79c0,2.18-.06,4.18-.16,6s-.33,4.07-.65,6.67H273.38q.15,13.35,5.45,19t18.31,5.7a87.14,87.14,0,0,0,14.64-1.31A58.73,58.73,0,0,0,324.15,135.06Zm-8.79-34.67q-.17-10.74-4.72-15.21T295.35,80.7q-12.06,0-17,5.13t-5,18H315.2c0-.21,0-.73.08-1.55S315.36,100.83,315.36,100.39Z"/><path class="cls-1" d="M392,138.15v11.23a30.14,30.14,0,0,1-7.08,1.87,52.83,52.83,0,0,1-8.54.74q-14.65,0-20.92-6.51T349.22,123V81.68H337.17V70.28h12.21l2.11-19.53h11.07V70.28H391.2v11.4H362.56v40.85q0,9.93,3.66,13.51t12.94,3.58a55.16,55.16,0,0,0,6.75-.49C388.46,138.8,390.5,138.48,392,138.15Z"/><path class="cls-1" d="M419.36,150.68H406V42.46h13.35V76.79a67.81,67.81,0,0,1,14.57-6.1,53.2,53.2,0,0,1,14.4-2q13.34,0,20.1,6.67T475.18,95v55.66H461.84v-54q0-8.3-4.32-12.12T444.1,80.7a50.36,50.36,0,0,0-12.45,1.63,59.8,59.8,0,0,0-12.29,4.56Z"/><path class="cls-1" d="M567.46,110.32q0,22.79-8.38,32.23T530.35,152q-21,0-29.13-9.12t-8.14-32.55q0-22.95,8.38-32.3t28.89-9.36q21,0,29,9.11T567.46,110.32Zm-61-.16q0,17.9,4.72,23.68t19.2,5.78q14,0,18.88-6.11t4.88-23.35q0-17.91-4.64-23.68T530.35,80.7q-14.16,0-19,6T506.43,110.16Z"/><path class="cls-1" d="M599.36,150.68H586V70.28h11.56l.65,7.82h.49a46.07,46.07,0,0,1,13.58-7.16,51.72,51.72,0,0,1,15.87-2.28q13.35,0,20.27,6.67T655.34,95v55.66H642v-54q0-8.13-4.56-12t-14-3.91a41,41,0,0,0-12,1.87A56,56,0,0,0,599.36,88Z"/><path class="cls-1" d="M687.08,150.68H673.73V137.17h13.35Z"/><path class="cls-1" d="M724.35,152q-12.37,0-18.15-6t-5.78-18.79q0-13,7-18.48t23.76-5.45c3.69,0,7.32.17,10.9.49a89.05,89.05,0,0,1,10.1,1.47V97.46q0-8.94-4.56-12.85T733,80.7q-7.49,0-13.18.57a93.53,93.53,0,0,0-11.39,1.87V71.59a89.18,89.18,0,0,1,13.26-2.28q6.75-.65,15.38-.65,14.49,0,21.48,6.75t7,20.92v54.35H753.31l-.65-7.48h-.32a38.66,38.66,0,0,1-12.61,6.34A50.86,50.86,0,0,1,724.35,152Zm8.29-37.76q-11.05,0-15.37,2.68T713,126.43q0,7.17,3.58,10.34t11.72,3.17a46.32,46.32,0,0,0,13-1.95,38,38,0,0,0,10.91-4.88V115.86c-3.58-.55-6.92-1-10-1.23S735.9,114.23,732.64,114.23Z"/><path class="cls-1" d="M801,56.29H786.68V42.46H801Zm-.49,94.39H787.17V70.28h13.34Z"/></svg>